<svg width="30" height="31" viewBox="0 0 30 31" fill="none" xmlns="http://www.w3.org/2000/svg">
<path fill-rule="evenodd" clip-rule="evenodd" d="M13.6083 0.0426517C5.74096 0.802033 -0.244671 7.56676 0.00769369 15.4136C0.0810384 17.6958 0.574854 19.6717 1.57551 21.6876C3.03742 24.6326 5.37283 26.9677 8.32381 28.4351C13.1076 30.8138 18.7612 30.4868 23.2231 27.5731C24.9677 26.4338 26.6211 24.7449 27.7499 22.9491C28.1789 22.2665 28.8266 20.9396 29.1208 20.1408C29.4172 19.3358 29.7629 17.9386 29.8911 17.0272C30.021 16.1039 30.0385 13.968 29.9229 13.1546C29.5765 10.7179 28.8038 8.64352 27.521 6.70617C26.9754 5.88224 26.4306 5.2175 25.6715 4.44973C23.3313 2.08275 20.4202 0.61474 17.0915 0.122979C16.3737 0.0169517 14.3565 -0.0295782 13.6083 0.0426517ZM18.5959 7.60437C18.7288 7.71193 18.7352 7.75265 18.7537 8.61653C18.7754 9.6264 18.72 9.9399 18.5122 9.9818C18.4408 9.99617 18.0291 10.0222 17.5973 10.0395C16.6816 10.0762 16.3911 10.1767 16.1696 10.533C16.0432 10.7362 16.0342 10.8186 16.0163 11.9371L15.9974 13.1252H17.2377C17.9709 13.1252 18.5239 13.1498 18.5903 13.1853C18.8251 13.3109 18.8353 13.4278 18.707 14.521C18.5621 15.7546 18.5553 15.7897 18.4368 15.9082C18.3592 15.9858 18.1596 16.0003 17.1753 16.0003H16.006V19.1495C16.006 21.9976 15.9967 22.309 15.9089 22.406C15.8208 22.5034 15.6995 22.5134 14.6004 22.5134C13.7365 22.5134 13.3689 22.4932 13.3186 22.4429C13.2656 22.3899 13.2482 21.5863 13.2482 19.1864V16.0003H12.3128C11.4126 16.0003 11.3738 15.9954 11.2859 15.8699C11.2107 15.7625 11.1946 15.5342 11.1946 14.5764C11.1946 13.4197 11.1954 13.4125 11.3386 13.2693C11.4787 13.1292 11.5067 13.1252 12.3602 13.1252H13.2378L13.2618 11.6437C13.2834 10.2997 13.298 10.124 13.4193 9.75138C13.7052 8.8723 14.2284 8.23884 14.971 7.87246C15.5704 7.57674 16.0274 7.50427 17.3344 7.49788C18.357 7.49283 18.4698 7.5024 18.5959 7.60437Z" fill="#EDC006"/>
</svg>
