<svg width="30" height="31" viewBox="0 0 30 31" fill="none" xmlns="http://www.w3.org/2000/svg">
<path fill-rule="evenodd" clip-rule="evenodd" d="M13.5994 0.0348581C8.50131 0.526946 3.94782 3.61591 1.64038 8.14755C0.824343 9.75027 0.342177 11.2956 0.0783452 13.1539C-0.0386004 13.978 -0.0216339 16.1098 0.109284 17.0286C0.341766 18.6602 0.822817 20.2063 1.56007 21.6915C3.02277 24.6381 5.35945 26.9745 8.31203 28.4427C13.0984 30.8227 18.7551 30.4955 23.2194 27.5803C24.965 26.4404 26.6193 24.7505 27.7487 22.9537C28.1779 22.2708 28.826 20.9432 29.1203 20.1439C29.4169 19.3385 29.7628 17.9406 29.891 17.0286C30.021 16.1048 30.0386 13.9678 29.9228 13.1539C29.5763 10.716 28.8032 8.6404 27.5196 6.70199C26.9738 5.87762 26.4286 5.21252 25.6691 4.44433C23.3276 2.07606 20.415 0.607258 17.0845 0.115229C16.3663 0.00914414 14.348 -0.037411 13.5994 0.0348581ZM19.1755 7.62394C20.8125 8.11579 21.986 9.32611 22.4028 10.9524C22.5245 11.4271 22.5245 18.5793 22.4028 19.054C21.9734 20.7295 20.7266 21.9762 19.0511 22.4056C18.5765 22.5273 11.4242 22.5273 10.9496 22.4056C9.30989 21.9854 8.08442 20.7874 7.61717 19.1479C7.525 18.8245 7.51514 18.4233 7.51514 15.0032C7.51514 10.864 7.50657 10.9813 7.86867 10.1626C8.42387 8.90717 9.6825 7.86558 10.9495 7.6129C11.1271 7.57744 11.3253 7.5374 11.3898 7.5239C11.4544 7.5104 13.1584 7.50511 15.1765 7.5121C18.4264 7.52337 18.8834 7.53617 19.1755 7.62394ZM11.1999 9.10554C10.6947 9.24157 10.2976 9.47869 9.88675 9.88958C9.46664 10.3096 9.23738 10.6996 9.09977 11.2279C8.96809 11.7333 8.97015 18.2808 9.10206 18.7874C9.24114 19.3213 9.51877 19.7834 9.93371 20.1715C10.3512 20.5621 10.7234 20.7732 11.225 20.9038C11.7305 21.0355 18.278 21.0334 18.7845 20.9015C19.3184 20.7624 19.7806 20.4848 20.1687 20.0698C20.5593 19.6524 20.7703 19.2802 20.9009 18.7785C21.0308 18.2802 21.0308 11.7262 20.9009 11.2279C20.7703 10.7262 20.5593 10.354 20.1687 9.93655C19.7806 9.5216 19.3184 9.24397 18.7845 9.1049C18.2943 8.97721 11.6743 8.97774 11.1999 9.10554ZM19.1419 10.196C19.4617 10.2765 19.7899 10.6154 19.848 10.9252C19.9363 11.3958 19.5759 11.9604 19.1343 12.0433C18.6473 12.1346 18.231 11.9257 18.0401 11.4942C17.8122 10.9791 18.0664 10.4112 18.6109 10.2186C18.9004 10.1163 18.8363 10.119 19.1419 10.196ZM15.8479 11.2168C16.925 11.445 17.9636 12.254 18.4528 13.2461C18.7823 13.9143 18.8946 14.4572 18.8586 15.2088C18.8097 16.2318 18.4611 17.0012 17.7009 17.764C16.9724 18.4951 16.0482 18.8752 14.9951 18.877C13.9352 18.8788 13.044 18.5049 12.2693 17.7331C11.5001 16.9668 11.1257 16.073 11.1257 15.0032C11.1257 13.9346 11.4996 13.0412 12.269 12.2718C13.2325 11.3084 14.5067 10.9327 15.8479 11.2168ZM14.1588 12.7958C13.4877 13.0771 13.141 13.4057 12.8419 14.0441C12.699 14.3492 12.6814 14.4543 12.6814 15.0032C12.6814 15.5744 12.6951 15.6486 12.8685 16.0144C13.1022 16.5079 13.4986 16.9017 14.0023 17.1409C14.3535 17.3077 14.4332 17.3221 15.0004 17.3221C15.5711 17.3221 15.646 17.3083 16.0102 17.1358C16.5107 16.8987 16.8959 16.5135 17.133 16.013C17.3055 15.6488 17.3193 15.5739 17.3193 15.0032C17.3193 14.4325 17.3055 14.3576 17.133 13.9934C16.8959 13.4929 16.5107 13.1077 16.0102 12.8706C15.6675 12.7083 15.5449 12.6822 15.0591 12.6683C14.5777 12.6544 14.4544 12.6719 14.1588 12.7958Z" fill="#EDC006"/>
</svg>
