<svg width="407" height="219" viewBox="0 0 407 219" fill="none" xmlns="http://www.w3.org/2000/svg">
<path d="M127.32 207H109.08V100.296H127.32V145.44H165.624V100.296H183.864V207H165.624V146.808H127.32V207ZM214.304 207H196.064V100.296H214.304V207ZM259.478 112.152C259.478 108.403 258.414 105.717 256.286 104.096C254.158 102.373 251.675 101.512 248.838 101.512C247.521 101.512 246.254 101.917 245.038 102.728C243.923 103.539 242.251 104.957 240.022 106.984C236.982 109.923 234.094 112.203 231.358 113.824C228.723 115.445 225.582 116.256 221.934 116.256V100.296H247.774C252.233 100.296 256.337 101.107 260.086 102.728C263.835 104.349 266.673 107.085 268.598 110.936C270.523 107.085 273.411 104.349 277.262 102.728C281.113 101.107 285.267 100.296 289.726 100.296H315.262V116.256C311.107 116.256 307.611 115.395 304.774 113.672C301.937 111.949 299.049 109.619 296.11 106.68C294.286 104.856 292.817 103.539 291.702 102.728C290.587 101.917 289.422 101.512 288.206 101.512C281.214 101.512 277.718 105.059 277.718 112.152V207H259.478V112.152Z" fill="#EDC010"/>
<path d="M29.07 38.54C32.55 38.54 35.7 39.56 38.52 41.6C41.4 43.58 43.68 46.58 45.36 50.6C47.04 54.56 47.88 59.42 47.88 65.18C47.88 70.76 46.89 75.68 44.91 79.94C42.99 84.2 40.32 87.5 36.9 89.84C33.48 92.18 29.7 93.35 25.56 93.35C21.78 93.35 18.06 92.33 14.4 90.29V111.17H3.6V39.98H14.4V45.29C16.5 43.13 18.81 41.48 21.33 40.34C23.85 39.14 26.43 38.54 29.07 38.54ZM22.05 91.55C24.93 91.55 27.48 90.41 29.7 88.13C31.98 85.79 33.72 82.61 34.92 78.59C36.18 74.57 36.81 70.1 36.81 65.18C36.81 60.2 36.21 55.94 35.01 52.4C33.87 48.8 32.31 46.1 30.33 44.3C28.41 42.44 26.28 41.51 23.94 41.51C20.52 41.51 17.34 43.1 14.4 46.28V89.21C16.98 90.77 19.53 91.55 22.05 91.55ZM52.8188 92V39.98H63.6188V60.68H63.7988C66.0188 53.42 68.7788 48.17 72.0788 44.93C75.3788 41.63 79.5488 39.98 84.5888 39.98V48.89C79.1888 48.89 74.7188 49.85 71.1788 51.77C67.6388 53.69 65.1188 57.44 63.6188 63.02V92H52.8188ZM94.5176 32.78C92.7176 32.78 91.2776 32.21 90.1976 31.07C89.1176 29.87 88.5776 28.49 88.5776 26.93C88.5776 25.37 89.1176 24.02 90.1976 22.88C91.2776 21.68 92.7176 21.08 94.5176 21.08C96.3776 21.08 97.8476 21.68 98.9276 22.88C100.008 24.02 100.548 25.37 100.548 26.93C100.548 28.49 100.008 29.87 98.9276 31.07C97.8476 32.21 96.3776 32.78 94.5176 32.78ZM99.9176 92H89.1176V39.98H99.9176V92ZM107.135 92V39.98H117.935V61.22H118.115C119.735 56.54 121.745 52.49 124.145 49.07C126.545 45.65 129.155 43.04 131.975 41.24C134.795 39.38 137.585 38.45 140.345 38.45C143.645 38.45 146.315 39.74 148.355 42.32C150.455 44.84 151.505 48.53 151.505 53.39V61.22H151.685C153.245 56.54 155.225 52.49 157.625 49.07C160.085 45.65 162.725 43.04 165.545 41.24C168.365 39.38 171.155 38.45 173.915 38.45C177.215 38.45 179.885 39.74 181.925 42.32C184.025 44.84 185.075 48.53 185.075 53.39V92H174.275V54.02C174.275 49.88 173.735 46.82 172.655 44.84C171.635 42.8 170.225 41.78 168.425 41.78C166.565 41.78 164.525 42.8 162.305 44.84C160.145 46.88 158.075 49.61 156.095 53.03C154.175 56.39 152.645 59.99 151.505 63.83V92H140.705V54.02C140.705 49.88 140.165 46.82 139.085 44.84C138.065 42.86 136.655 41.87 134.855 41.87C132.935 41.87 130.865 42.92 128.645 45.02C126.485 47.12 124.445 49.88 122.525 53.3C120.605 56.72 119.075 60.35 117.935 64.19V92H107.135ZM216.061 93.53C211.741 93.53 207.631 92.45 203.731 90.29C199.831 88.07 196.651 84.83 194.191 80.57C191.731 76.25 190.501 71.12 190.501 65.18C190.501 59.24 191.701 54.26 194.101 50.24C196.501 46.22 199.651 43.25 203.551 41.33C207.451 39.41 211.651 38.45 216.151 38.45C221.251 38.45 225.601 39.8 229.201 42.5C232.861 45.2 235.141 48.86 236.041 53.48C232.621 54.74 229.411 56.42 226.411 58.52C223.471 60.56 220.591 63.05 217.771 65.99C218.251 65.93 218.941 65.9 219.841 65.9C223.981 65.9 227.311 67.13 229.831 69.59C232.411 71.99 233.701 75.02 233.701 78.68C233.701 81.5 232.951 84.05 231.451 86.33C230.011 88.55 227.941 90.32 225.241 91.64C222.541 92.9 219.481 93.53 216.061 93.53ZM204.451 78.23C206.491 76.85 208.261 75.41 209.761 73.91C211.321 72.35 213.211 70.31 215.431 67.79C217.651 65.15 219.601 63.02 221.281 61.4C222.961 59.78 224.911 58.37 227.131 57.17C226.891 53.99 226.171 51.02 224.971 48.26C223.771 45.44 222.301 43.19 220.561 41.51C218.881 39.83 217.141 38.99 215.341 38.99C212.881 38.99 210.601 39.95 208.501 41.87C206.401 43.73 204.691 46.43 203.371 49.97C202.111 53.45 201.481 57.53 201.481 62.21C201.481 68.09 202.471 73.43 204.451 78.23ZM220.381 90.65C224.281 90.65 227.371 89.54 229.651 87.32C231.931 85.04 233.071 82.13 233.071 78.59C233.071 75.17 231.841 72.29 229.381 69.95C226.981 67.55 223.741 66.35 219.661 66.35C219.121 66.35 218.311 66.41 217.231 66.53L215.521 68.42C213.421 70.88 211.591 72.92 210.031 74.54C208.471 76.1 206.701 77.57 204.721 78.95C206.221 82.67 208.411 85.55 211.291 87.59C214.231 89.63 217.261 90.65 220.381 90.65ZM240.993 92V39.98H251.793V60.68H251.973C254.193 53.42 256.953 48.17 260.253 44.93C263.553 41.63 267.723 39.98 272.763 39.98V48.89C267.363 48.89 262.893 49.85 259.353 51.77C255.813 53.69 253.293 57.44 251.793 63.02V92H240.993Z" fill="white"/>
</svg>
