<svg width="460" height="120" viewBox="0 0 460 120" fill="none" xmlns="http://www.w3.org/2000/svg">
<g clip-path="url(#clip0_454_11480)">
<path d="M0.87895 29.6909L0 26.8112C5.87594 28.1778 10.7427 28.6822 15.1212 28.6822C24.871 28.6822 31.7399 26.1768 40.8549 26.1768C60.5987 26.1768 72.9691 39.2896 72.9691 60.1464C72.9691 81.0032 61.1033 94.2299 43.4917 94.2299C34.4906 94.2299 26.2546 89.4794 20.5088 82.5V107.847C20.5088 110.336 22.1365 111.963 24.6269 111.963H26.1243L26.8731 114.843H0L0.87895 111.963H2.50663C4.88305 111.963 6.38052 110.466 6.51074 108.091V36.1822C6.51074 33.6768 5.01327 31.4316 2.76706 30.4392L0.895227 29.6909H0.87895ZM45.7217 90.5043C55.9598 90.5043 61.966 81.8817 61.966 71.8926C61.966 58.2755 51.972 30.3091 36.3625 30.3091C32.1142 30.3091 26.2383 31.4316 20.4926 31.8058V53.5249C20.4926 69.6312 31.7399 90.488 45.7217 90.488V90.5043Z" fill="#EDC00D"/>
<path d="M81.4493 29.6912L80.5703 26.8116L81.0749 26.9417L80.5703 26.8116C86.316 27.9341 91.0689 28.3083 95.1869 28.3083C104.937 28.3083 111.806 26.1934 120.676 26.1934C140.16 26.1934 152.416 37.3051 152.416 55.0383C152.416 72.7715 138.174 85.9981 123.313 84.0133C121.441 83.7693 119.57 83.1348 117.698 82.3864C125.315 92.0014 136.807 99.6153 148.184 102.609L153.425 97.3701L156.42 99.8756L142.308 115.738C131.061 113.363 108.322 91.009 106.206 78.6608L109.332 72.0393C113.71 77.278 119.325 80.7758 125.576 80.7758C135.7 80.7758 141.446 73.5361 141.446 65.0437C141.446 53.5578 131.696 29.7075 116.331 29.7075C112.213 29.7075 106.711 30.586 101.095 30.9602V107.88C101.095 110.369 102.723 111.996 105.213 111.996H106.711L107.46 114.876H80.6029L81.4818 111.996H83.1095C85.4859 111.996 86.9834 110.499 87.1136 108.124V36.1825C87.1136 33.6771 85.6161 31.432 83.3699 30.4396L81.4981 29.6912H81.4493Z" fill="#EDC00D"/>
<path d="M265.703 111.98L266.582 114.859H239.726L240.474 111.98H242.102C244.218 111.98 245.846 110.727 246.106 108.726V33.8072C246.106 31.318 244.609 29.6911 242.102 29.6911H240.474L239.726 26.8115H304.817C307.323 30.4395 308.446 37.4189 304.947 41.4211C299.071 33.1727 281.329 30.6835 260.104 30.5534V71.6326C275.714 71.7627 282.973 70.8842 287.596 64.5068C290.347 67.6304 290.347 79.2464 287.596 82.3701C282.973 76.0089 275.73 75.1304 260.104 75.2605V107.847C260.104 110.336 261.732 111.963 264.222 111.963H265.72L265.703 111.98Z" fill="#EDC00D"/>
<path d="M315.901 111.98H317.528C320.035 111.98 321.533 110.353 321.533 107.864V33.8072C321.533 31.318 320.035 29.6911 317.528 29.6911H315.901L315.152 26.8115H377.737C380.243 30.4395 381.366 37.4189 377.867 41.4211C371.991 33.1727 356.512 30.6835 335.514 30.5534V68.8831C351.124 69.0133 357.13 68.1347 361.753 61.7573C364.503 64.8809 364.503 76.497 361.753 79.6206C357.13 73.2595 351.14 72.3809 335.514 72.4948V111.085C356.756 110.955 374.497 108.466 380.357 100.217C383.857 104.219 382.734 111.199 380.227 114.827H315.136L315.884 111.947L315.901 111.98Z" fill="#EDC00D"/>
<path d="M390.612 92.3755C390.987 84.0132 397.237 78.5143 405.099 78.5143C406.726 78.5143 408.354 78.7583 410.096 79.2627C407.849 80.6293 403.341 84.7616 403.097 92.1314C402.852 103.992 412.716 112.614 427.951 112.614C441.819 112.614 450.69 106.123 450.186 96.1336C449.062 76.7735 392.093 75.1629 394.714 45.3093C395.967 31.9525 407.703 24.8267 425.445 25.087C438.938 25.331 450.055 29.7074 456.175 35.6943C456.306 40.3147 454.548 48.3028 451.683 51.2963C447.435 36.6867 437.197 29.1867 423.703 28.8126C413.839 28.5685 405.457 32.3104 404.594 40.5425C402.218 63.0262 457.933 63.1401 459.935 90.3581C461.058 105.846 447.695 116.323 426.324 116.323C404.952 116.323 389.847 105.716 390.596 92.3429L390.612 92.3755Z" fill="#EDC00D"/>
<path d="M231.456 87.8854C235.135 124.572 165.291 133.292 160.929 95.7921C158.748 74.7889 183.163 41.649 197.08 28.5687C203.493 22.5655 222.586 23.3789 226.134 37.842L231.456 87.8854ZM215.896 63.3355C206.488 55.1522 195.712 81.329 193.515 79.5557C189.836 76.4158 214.528 38.5091 210.834 37.8258C209.336 37.5492 192.962 58.829 182.724 68.5091L167.716 84.4689C160.343 93.1891 165.812 103.552 171.395 107.376C177.401 111.459 188.453 114.192 195.957 111.459C219.151 102.869 197.047 91.9527 198.821 86.7791C199.098 85.4125 222.699 69.3225 215.879 63.3192L215.896 63.3355Z" fill="#EDC00D"/>
<path d="M305.321 0H149.926V4.88069H305.321V0Z" fill="#EDC010"/>
</g>
<defs>
<clipPath id="clip0_454_11480">
<rect width="460" height="120" fill="white"/>
</clipPath>
</defs>
</svg>
