<svg width="418" height="104" viewBox="0 0 418 104" fill="none" xmlns="http://www.w3.org/2000/svg">
<path d="M178.232 104C173.145 104 168.512 102.656 164.335 99.9677C160.211 97.2796 156.945 93.6505 154.535 89.0806C152.178 84.457 151 79.4301 151 74C151 67.871 152.259 62.5484 154.776 58.0323C157.293 53.4624 160.586 49.9946 164.656 47.629C168.78 45.2097 173.118 44 177.67 44C181.847 44 185.784 45.0484 189.479 47.1452C193.174 49.1882 196.2 52.2258 198.556 56.2581L191.166 61.4194C189.131 56.0968 186.667 52.0376 183.775 49.2419C180.937 46.4462 178.098 45.0484 175.26 45.0484C172.261 45.0484 169.69 46.0161 167.548 47.9516C165.46 49.8333 163.88 52.3871 162.809 55.6129C161.791 58.7849 161.282 62.3064 161.282 66.1774C161.282 71.5538 162.193 76.8495 164.014 82.0645C165.888 87.2796 168.593 91.5806 172.127 94.9677C175.715 98.3548 179.973 100.048 184.9 100.048C187.899 100.048 190.711 99.1882 193.335 97.4677C196.012 95.7473 198.262 93.1667 200.083 89.7258L200.565 90.2903C197.94 94.8064 194.7 98.2204 190.844 100.532C186.989 102.844 182.785 104 178.232 104Z" fill="#E3B80F"/>
<path d="M204.889 85.7742C205.96 82.2258 207.487 79.7796 209.468 78.4355C211.503 77.0914 214.047 76.4194 217.1 76.4194C214.529 73.2473 212.628 69.9946 211.396 66.6613C210.164 63.2742 209.548 60.0215 209.548 56.9032C209.548 53.2473 210.539 50.2903 212.521 48.0323C214.502 45.7204 216.993 44.5645 219.992 44.5645C222.402 44.5645 224.651 45.2903 226.739 46.7419C228.828 48.1935 230.435 50.3441 231.559 53.1935L251.321 102.548H241.681L231.479 77.0645H221.92C220.045 77.0645 218.572 77.5753 217.501 78.5968C216.484 79.6183 215.573 81.4731 214.77 84.1613L209.388 102.548H199.748L204.889 85.7742ZM231.158 76.4194L222.562 54.8065C221.652 52.6559 220.581 51.0699 219.349 50.0484C218.171 48.9731 216.912 48.4355 215.573 48.4355C213.967 48.4355 212.681 49.2419 211.717 50.8548C210.753 52.414 210.271 54.457 210.271 56.9839C210.271 59.9946 210.887 63.2204 212.119 66.6613C213.404 70.0484 215.386 73.3011 218.064 76.4194H231.158Z" fill="#E3B80F"/>
<path d="M301.765 45.9355V102.548H292.126V54.3226C289.608 57.172 287.011 60.6667 284.333 64.8064C281.656 68.8925 279.46 72.6559 277.746 76.0968C279.406 79.5376 280.236 82.0108 280.236 83.5161C280.236 84.7527 279.942 85.7473 279.353 86.5C278.817 87.1989 278.148 87.5484 277.345 87.5484C276.541 87.5484 275.845 87.1989 275.256 86.5C274.72 85.7473 274.453 84.7527 274.453 83.5161C274.453 81.9032 275.283 79.4301 276.943 76.0968C275.283 72.6021 273.06 68.7849 270.275 64.6452C267.544 60.4516 264.973 57.0107 262.564 54.3226V102.548H252.924V45.9355H256.137C259.082 48.8387 262.751 53.2742 267.142 59.2419C271.534 65.2097 274.935 70.5591 277.345 75.2903C279.808 70.5054 283.209 65.129 287.547 59.1613C291.938 53.1935 295.607 48.7849 298.552 45.9355H301.765ZM279.353 83.3548C279.353 81.9032 278.683 79.7796 277.345 76.9839C276.006 80.0484 275.336 82.172 275.336 83.3548C275.336 84.4301 275.524 85.2903 275.899 85.9355C276.327 86.5269 276.809 86.8226 277.345 86.8226C277.88 86.8226 278.335 86.5269 278.71 85.9355C279.139 85.2903 279.353 84.4301 279.353 83.3548Z" fill="#E3B80F"/>
<path d="M308.23 102.548V45.9355H330C333.106 45.9355 335.73 46.3656 337.872 47.2258C340.015 48.086 341.594 49.2419 342.612 50.6935C343.63 52.0914 344.138 53.5968 344.138 55.2097C344.138 56.9301 343.603 58.5699 342.532 60.129C341.461 61.6882 339.881 62.9516 337.792 63.9194C335.703 64.8871 333.24 65.371 330.402 65.371V65.6129C334.793 65.6129 338.488 66.4194 341.487 68.0323C344.54 69.5914 346.816 71.6882 348.316 74.3226C349.815 76.957 350.565 79.8064 350.565 82.871C350.565 86.2043 349.681 89.3763 347.914 92.3871C346.147 95.3979 343.522 97.8441 340.041 99.7258C336.56 101.608 332.356 102.548 327.429 102.548H308.23ZM324.939 65.129C328.045 65.129 330.402 64.2151 332.008 62.3871C333.668 60.5054 334.499 58.2742 334.499 55.6935C334.499 53.2204 333.749 51.1237 332.249 49.4032C330.75 47.629 328.581 46.7419 325.742 46.7419H317.87V65.129H324.939ZM326.626 101.742C329.679 101.742 332.276 100.882 334.418 99.1613C336.614 97.3871 338.247 95.1021 339.318 92.3065C340.389 89.5108 340.925 86.5269 340.925 83.3548C340.925 80.2366 340.389 77.3602 339.318 74.7258C338.301 72.0914 336.694 69.9677 334.499 68.3548C332.303 66.7419 329.545 65.9355 326.224 65.9355H317.87V101.742H326.626Z" fill="#E3B80F"/>
<path d="M364.625 102.548H354.986V45.9355H364.625V102.548Z" fill="#E3B80F"/>
<path d="M393.74 103.919C388.599 103.919 384.207 102.575 380.565 99.8871C376.924 97.1452 374.166 93.543 372.291 89.0806C370.417 84.5645 369.48 79.6452 369.48 74.3226C369.48 68.9462 370.417 64 372.291 59.4839C374.166 54.9677 376.924 51.3656 380.565 48.6774C384.207 45.9355 388.599 44.5645 393.74 44.5645C398.881 44.5645 403.273 45.9355 406.914 48.6774C410.556 51.3656 413.314 54.9677 415.188 59.4839C417.063 64 418 68.9462 418 74.3226C418 79.6452 417.063 84.5645 415.188 89.0806C413.314 93.543 410.556 97.1452 406.914 99.8871C403.273 102.575 398.881 103.919 393.74 103.919ZM393.66 103.113C396.766 103.113 399.417 101.661 401.612 98.7581C403.808 95.8548 405.441 92.1452 406.513 87.629C407.637 83.0591 408.2 78.328 408.2 73.4355C408.2 68.6505 407.664 64.1344 406.593 59.8871C405.522 55.586 403.888 52.0914 401.693 49.4032C399.497 46.7151 396.819 45.371 393.66 45.371C390.553 45.371 387.902 46.7688 385.707 49.5645C383.565 52.3602 381.958 55.9624 380.887 60.371C379.816 64.7796 379.28 69.4032 379.28 74.2419C379.28 79.0806 379.816 83.7043 380.887 88.1129C381.958 92.5215 383.565 96.1237 385.707 98.9193C387.902 101.715 390.553 103.113 393.66 103.113Z" fill="#E3B80F"/>
<path d="M14.8044 23.1246C23.9579 23.1246 30.8514 20.8575 30.8514 11.3356C30.8514 1.8137 23.9014 0 15.4824 0H2.65609V39.6746H7.96742V23.068C10.6796 23.1246 13.2788 23.1246 14.8044 23.1246ZM7.96742 18.3637V4.81764H15.0869C20.9632 4.81764 25.5965 4.87431 25.5965 11.2223C25.5965 17.9103 20.5677 18.3637 15.0869 18.3637H7.96742Z" fill="white"/>
<path d="M42.9749 13.7728C41.7883 14.9063 41.2233 17.0601 40.6583 18.5904L39.7542 18.2503C40.3192 16.72 41.1668 14.7363 41.1668 13.0926V11.3356H36.251V39.6746H41.1668V25.2217C41.1668 17.4002 47.7212 15.1897 54.3321 15.1897V10.4854C48.2297 10.4854 45.6306 11.0522 42.9749 13.7728Z" fill="white"/>
<path d="M58.769 25.3918C58.769 34.0635 64.9279 40.5815 73.8554 40.5815C82.783 40.5815 88.9419 33.9501 88.9419 25.3918C88.9419 16.8334 82.783 10.4854 73.8554 10.4854C64.9279 10.4854 58.769 16.6633 58.769 25.3918ZM63.8543 25.3918C63.8543 19.6673 67.1315 15.2464 73.8554 15.2464C80.5793 15.2464 83.8565 19.6673 83.8565 25.3918C83.8565 31.1162 80.5793 35.8205 73.8554 35.8205C67.1315 35.8205 63.8543 31.0596 63.8543 25.3918Z" fill="white"/>
<path d="M99.3164 31.9664C99.3164 36.2739 101.633 39.6746 105.984 39.6746H111.295V34.9704H107.961C105.306 34.9704 104.232 34.2902 104.232 31.9664V15.9832H111.578V11.449H104.232V1.92706H99.3164V11.449H93.6661V15.9832H99.3164V31.9664Z" fill="white"/>
<path d="M139.935 36.8407C141.065 35.5371 141.461 33.27 142.026 31.683L142.93 31.9664C142.422 33.6101 141.518 35.6505 141.461 37.3508L141.348 39.6746H146.32V11.3356H141.348L141.461 13.4894C141.518 15.1897 142.422 17.2301 142.987 18.8171L142.026 19.1572C141.461 17.5135 141.065 15.2464 139.879 13.9995C137.732 11.789 134.681 10.4854 130.838 10.4854C122.363 10.4854 116.373 16.8901 116.373 25.3351C116.373 33.7801 122.363 40.5815 130.838 40.5815C134.681 40.5815 137.788 39.1645 139.935 36.8407ZM121.289 25.3351C121.289 19.5539 124.736 15.1897 130.951 15.1897C137.167 15.1897 140.67 19.1005 140.67 25.3351C140.387 30.7762 137.054 35.8772 130.951 35.8772C124.792 35.8772 121.289 31.0596 121.289 25.3351Z" fill="white"/>
<path d="M175.642 36.784C176.715 35.5371 177.111 33.27 177.676 31.7397L178.58 32.0798C178.071 33.6101 177.111 35.5938 176.998 37.2942C176.941 38.201 176.941 39.1078 176.941 40.2414C176.941 45.5691 174.286 49.1399 167.11 49.1399C164.171 49.1399 159.199 48.0063 158.973 42.9053H153.888C154.17 49.7066 159.143 53.8441 167.675 53.8441C178.184 53.8441 181.857 48.1763 181.914 40.4681V11.3356H176.941L177.054 13.4894C177.167 15.1897 178.071 17.1734 178.636 18.8171L177.732 19.1572C177.111 17.5135 176.715 15.2464 175.529 13.9995C173.438 11.789 170.387 10.4854 166.601 10.4854C158.352 10.4854 152.532 16.8901 152.532 25.3351C152.532 33.7801 158.352 40.5815 166.601 40.5815C170.443 40.5815 173.495 39.1645 175.642 36.784ZM157.448 25.3918C157.448 19.6673 160.725 15.2464 166.997 15.2464C172.93 15.2464 176.207 19.2705 176.489 24.5983V26.2419C176.207 31.6263 172.93 35.8205 166.997 35.8205C160.725 35.8205 157.448 31.1729 157.448 25.3918Z" fill="white"/>
<path d="M187.999 25.3918C187.999 34.0635 194.158 40.5815 203.085 40.5815C212.013 40.5815 218.172 33.9501 218.172 25.3918C218.172 16.8334 212.013 10.4854 203.085 10.4854C194.158 10.4854 187.999 16.6633 187.999 25.3918ZM193.084 25.3918C193.084 19.6673 196.361 15.2464 203.085 15.2464C209.809 15.2464 213.086 19.6673 213.086 25.3918C213.086 31.1162 209.809 35.8205 203.085 35.8205C196.361 35.8205 193.084 31.0596 193.084 25.3918Z" fill="white"/>
<path d="M231.145 12.9226C229.676 14.1128 228.942 16.4933 228.207 18.2503L227.303 17.9103C228.038 16.1532 228.942 13.8861 228.942 11.9591V11.3356H224.026V39.6746H228.942V23.8048C228.942 17.7969 233.349 15.133 238.604 15.133C243.35 15.133 245.667 17.7969 245.667 23.8048V39.6746H250.639V20.2341C250.639 13.7728 246.119 10.4854 240.242 10.4854C236.231 10.4854 233.801 10.7688 231.145 12.9226Z" fill="white"/>
<path d="M258.006 5.38442H263.543V0H258.006V5.38442ZM258.345 39.6746H263.317V11.3356H258.345V39.6746Z" fill="white"/>
<path d="M295.837 31.343C295.837 19.724 274.874 24.2582 274.874 18.7604C274.874 16.38 277.925 14.9063 281.994 14.9063C286.627 14.9063 290.074 16.3233 290.074 18.5337H295.046C295.046 13.8294 289.565 10.4854 282.163 10.4854C274.422 10.4854 269.789 14.3395 269.789 18.7038C269.789 29.756 290.752 24.2582 290.752 31.7964C290.752 34.5736 288.266 35.8772 283.802 35.8772C278.716 35.8772 274.422 33.27 274.422 31.1729H269.45C269.45 36.3306 276.004 40.5815 283.519 40.5815C291.599 40.5815 295.837 37.1808 295.837 31.343Z" fill="white"/>
<path d="M306.68 31.9664C306.68 36.2739 308.997 39.6746 313.347 39.6746H318.659V34.9704H315.325C312.669 34.9704 311.596 34.2902 311.596 31.9664V15.9832H318.941V11.449H311.596V1.92706H306.68V11.449H301.03V15.9832H306.68V31.9664Z" fill="white"/>
<path d="M347.299 36.8407C348.429 35.5371 348.825 33.27 349.39 31.683L350.294 31.9664C349.785 33.6101 348.881 35.6505 348.825 37.3508L348.712 39.6746H353.684V11.3356H348.712L348.825 13.4894C348.881 15.1897 349.785 17.2301 350.35 18.8171L349.39 19.1572C348.825 17.5135 348.429 15.2464 347.243 13.9995C345.095 11.789 342.044 10.4854 338.202 10.4854C329.726 10.4854 323.737 16.8901 323.737 25.3351C323.737 33.7801 329.726 40.5815 338.202 40.5815C342.044 40.5815 345.152 39.1645 347.299 36.8407ZM328.653 25.3351C328.653 19.5539 332.1 15.1897 338.315 15.1897C344.53 15.1897 348.034 19.1005 348.034 25.3351C347.751 30.7762 344.417 35.8772 338.315 35.8772C332.156 35.8772 328.653 31.0596 328.653 25.3351Z" fill="white"/>
<path d="M386 31.343C386 19.724 365.037 24.2582 365.037 18.7604C365.037 16.38 368.088 14.9063 372.157 14.9063C376.79 14.9063 380.237 16.3233 380.237 18.5337H385.209C385.209 13.8294 379.728 10.4854 372.326 10.4854C364.585 10.4854 359.952 14.3395 359.952 18.7038C359.952 29.756 380.915 24.2582 380.915 31.7964C380.915 34.5736 378.429 35.8772 373.965 35.8772C368.879 35.8772 364.585 33.27 364.585 31.1729H359.613C359.613 36.3306 366.167 40.5815 373.682 40.5815C381.762 40.5815 386 37.1808 386 31.343Z" fill="white"/>
<path d="M24.5795 68.9646C24.5795 70.6649 25.3705 72.7053 25.9356 74.349L24.975 74.6324C24.4665 73.0454 24.0709 70.7783 22.8844 69.5314C20.7937 67.2642 17.799 65.8473 14.0133 65.8473C5.59427 65.8473 0.0569278 72.7053 0.000424122 81.0937C-0.0560793 89.5387 5.53777 95.9433 14.0133 95.9433C17.799 95.9433 20.7372 94.6964 22.8844 92.486C24.0709 91.2957 24.4665 89.0286 24.975 87.3849L25.9356 87.725C25.427 89.312 24.5795 91.3524 24.5795 93.0527V95.0932H29.4953V54.0016H24.5795V68.9646ZM14.3523 91.2391C7.91092 91.2391 4.91623 86.8748 4.91623 81.0937C4.91623 75.3692 7.91092 70.5516 14.3523 70.5516C20.7372 70.5516 24.1274 75.3692 24.1274 81.0937C24.1274 86.8748 20.7372 91.2391 14.3523 91.2391Z" fill="white"/>
<path d="M51.0297 96C59.1098 96 62.8955 89.9355 63.6865 86.9882H58.3752C57.7537 89.0286 55.0415 91.4658 50.6342 91.4658C43.7973 91.4658 40.5201 86.4781 40.5201 82.7373L64.3081 82.794C64.3646 82.2839 64.3081 80.9803 64.3081 80.4135C64.3646 72.7053 58.8272 65.904 49.8997 65.904C41.1416 65.904 35.0392 72.3086 35.0392 80.7536C35.0392 89.1986 40.6331 96 51.0297 96ZM40.5201 78.6565C40.5201 74.519 44.3623 70.2682 49.9562 70.2682C55.437 70.2682 58.8272 74.1223 58.8272 78.6565H40.5201Z" fill="white"/>
<path d="M102.843 93.0527C103.747 92.0892 104.199 90.3889 104.651 89.142L105.611 89.482C105.103 90.7289 104.312 92.2593 104.255 93.6195L104.199 95.0932H109.171V66.7541H104.199V82.794C104.199 88.8586 99.3394 91.3524 95.2146 91.3524C91.4289 91.3524 88.8297 88.7452 88.8297 82.794V66.7541H83.9139V86.1947C83.9139 92.5993 88.9427 95.9433 94.1976 95.9433C98.0398 95.9433 100.243 95.5466 102.843 93.0527Z" fill="white"/>
<path d="M124.925 68.3411C123.456 69.5314 122.722 71.9118 121.987 73.6689L121.083 73.3288C121.818 71.5718 122.722 69.3046 122.722 67.3776V66.7541H117.806V95.0932H122.722V79.2233C122.722 73.2154 127.129 70.5516 132.384 70.5516C137.13 70.5516 139.447 73.2154 139.447 79.2233V95.0932H144.419V75.6526C144.419 69.1913 139.899 65.904 134.022 65.904C130.011 65.904 127.581 66.1874 124.925 68.3411Z" fill="white"/>
</svg>
